<?xml version="1.0" encoding="utf-8"?>
<!-- Generator: Adobe Illustrator 22.0.0, SVG Export Plug-In . SVG Version: 6.00 Build 0)  -->
<svg version="1.1" id="Layer_1" xmlns="http://www.w3.org/2000/svg" xmlns:xlink="http://www.w3.org/1999/xlink" x="0px" y="0px"
	 viewBox="0 0 27 28" style="enable-background:new 0 0 27 28;" xml:space="preserve">
<style type="text/css">
	.st0{fill:#FDB927;}
</style>
<path class="st0" d="M12.5,0.5C10.8,0.7,9.4,1,8.1,1.6C7.1,2.1,5.9,2.7,5.6,3C5.4,3.3,5.5,3.8,6,3.9c0.2,0,0.3,0,0.8-0.3
	c0.7-0.4,1.7-1,2.5-1.2c0.5-0.2,1.8-0.6,2-0.6c0.1,0,0.1,0,0,0.1C10.4,3.2,9.8,4.8,9.3,7L9.2,7.4L8.9,7.5C8.1,7.7,7.5,8.3,7.3,9
	c0,0.1-0.2,0.1-2.6,0.1c-1.4,0-2.6,0-2.6,0c0-0.1,0.6-1.3,0.9-1.7c0.4-0.6,0.4-0.8,0.1-1C2.9,6.3,2.8,6.2,2.7,6.3
	C2.4,6.3,2.4,6.3,2,6.9c-2.8,4.5-2.7,10.2,0.3,14.6l0.2,0.3l-0.2,0.3c-0.2,0.4-0.3,0.9-0.2,1.4C2.4,25,4,25.8,5.3,25.1L5.6,25
	l0.5,0.3c2.1,1.4,4.4,2.1,7,2.2c4.7,0.2,9.1-2.1,11.8-6.1c1.5-2.3,2.3-5.1,2.2-7.8c-0.1-2.6-0.8-4.8-2.2-7l-0.3-0.5l0.2-0.3
	c0.2-0.4,0.3-0.9,0.2-1.4C24.6,3,23,2.2,21.7,2.9L21.4,3L21,2.8c-1.7-1.1-3.6-1.9-5.6-2.2C14.9,0.5,13,0.5,12.5,0.5z M14,1.7
	c1.2,0.5,2.3,3.2,2.9,6.5C16.9,8.5,16.9,8.9,17,9l0,0.2l-2.7,0l-2.7,0l-0.1-0.3c-0.2-0.5-0.5-0.8-1.2-1.2c0,0,0.1-0.8,0.3-1.6
	c0.7-2.7,1.9-4.5,2.9-4.5C13.6,1.5,13.8,1.6,14,1.7z M16.6,1.9C17,2,17.5,2.2,17.8,2.3c1.2,0.4,2.9,1.4,2.9,1.6
	c-0.1,0.3-0.2,0.8-0.2,1.1c0.1,1.5,1.6,2.4,3.1,1.9c0.1,0,0.2,0.1,0.4,0.4c0.3,0.4,1,1.7,1,1.8c0,0-1.5,0-3.4,0h-3.4l-0.1-0.9
	c-0.4-2.6-1.1-4.7-2-6c-0.1-0.2-0.2-0.4-0.3-0.4C15.6,1.7,15.8,1.7,16.6,1.9z M23.2,3.8c0.9,0.4,0.8,1.7-0.1,2.1
	c-0.8,0.4-1.7-0.3-1.6-1.2c0.1-0.6,0.6-1.1,1.1-1.1C22.9,3.7,23,3.7,23.2,3.8z M3.9,4.6C3.7,4.8,3.6,4.9,3.8,5.2
	c0.2,0.4,0.7,0.4,0.9,0c0.1-0.3,0.1-0.6-0.2-0.7C4.2,4.3,4.1,4.4,3.9,4.6z M9.9,8.6c0.6,0.3,0.8,0.9,0.6,1.5
	C10,11,8.8,11.1,8.4,10.2C8.2,10,8.2,9.9,8.2,9.6C8.3,8.8,9.1,8.3,9.9,8.6z M7.3,10.3c0.2,0.6,0.6,1.1,1.1,1.4l0.3,0.1l0,1.5
	c0,1.3,0,2.6,0.1,4.1l0,0.5H5.2H1.6l-0.1-0.2c-0.1-0.4-0.3-1.3-0.4-1.8c-0.1-0.4-0.1-0.9-0.1-1.8c0-1.4,0.1-2.2,0.5-3.5l0.1-0.3h2.8
	C7,10.2,7.2,10.2,7.3,10.3z M17.1,10.3c0.1,0.3,0.2,3.7,0.2,5l0,0.9l-0.2,0c-0.3,0.1-0.8,0.3-1.1,0.6c-0.3,0.3-0.6,0.8-0.6,0.9
	c0,0.1-5.5,0.1-5.6,0c-0.1-0.3-0.2-3.7-0.2-5l0-0.9l0.3-0.1c0.3-0.1,0.8-0.4,1-0.7c0.2-0.2,0.4-0.6,0.4-0.8c0-0.1,0.2-0.1,2.8-0.1
	C16.5,10.2,17.1,10.2,17.1,10.3z M25.4,10.4c0.1,0.4,0.3,1.3,0.4,1.8c0.1,0.8,0.1,2.7,0,3.5c-0.1,0.6-0.2,1.3-0.4,1.8l-0.1,0.3h-2.8
	h-2.8l-0.2-0.3c-0.2-0.4-0.6-0.9-1-1.1l-0.3-0.2l0-1.5c0-1.3,0-2.6-0.1-4.1l0-0.5h3.6h3.6L25.4,10.4z M18.1,17.3
	c0.2,0.1,0.3,0.2,0.4,0.4c0.1,0.2,0.2,0.3,0.2,0.6s0,0.4-0.2,0.6c-0.2,0.3-0.6,0.5-0.9,0.5c-0.7,0-1.2-0.5-1.2-1.2
	C16.4,17.4,17.3,16.9,18.1,17.3z M9.1,19.7c0.4,2.6,1.1,4.8,2,6.1c0.2,0.3,0.2,0.4,0.1,0.4c-0.1,0-1.5-0.3-2-0.5
	c-1.2-0.4-2.9-1.4-2.9-1.6c0.1-0.3,0.2-0.8,0.2-1.1c-0.1-1.5-1.6-2.4-3.1-1.9c-0.1,0-0.2-0.1-0.4-0.4c-0.3-0.4-1-1.7-1-1.8
	c0,0,1.5,0,3.4,0h3.4L9.1,19.7z M15.5,18.9c0,0,0.1,0.2,0.1,0.3c0.2,0.3,0.6,0.8,0.9,1c0.1,0.1,0.2,0.2,0.2,0.2c0,0.1-0.3,1.5-0.5,2
	c-0.6,2-1.5,3.5-2.3,3.9c-0.4,0.2-0.6,0.2-0.9,0c-1.2-0.5-2.3-3.1-2.9-6.5c-0.1-0.5-0.2-0.9-0.2-1c0,0,1.2,0,2.7,0
	C14.9,18.8,15.5,18.9,15.5,18.9z M25,18.9c0,0.1-0.6,1.3-0.8,1.6c-1,1.6-2.5,3.1-4.1,4.1c-0.6,0.3-1.5,0.8-2.2,1.1
	c-0.6,0.2-1.9,0.6-2.1,0.6c-0.1,0-0.1,0,0-0.1c0.8-1.3,1.5-2.9,1.9-5.1l0.1-0.4l0.3-0.1c0.7-0.2,1.2-0.6,1.5-1.3l0.2-0.3h2.6
	C23.8,18.8,25,18.9,25,18.9z M4.9,22.2c0.9,0.5,0.8,1.7-0.1,2.1c-0.8,0.3-1.6-0.3-1.5-1.1c0-0.6,0.6-1.1,1.1-1.1
	C4.5,22,4.7,22.1,4.9,22.2z"/>
</svg>
